General

Complete name                    : Tom And Jerry BLAST OFF to MARS.2005{PSP-IPOD}DVDRip.aaaevilacharya.m4v
Format                           : MPEG-4
Format profile                   : Base Media / Version 2
Codec ID                         : mp42
File size                        : 249 MiB
Duration                         : 1h 11mn
Overall bit rate                 : 487 Kbps
Encoded date                     : UTC 2010-11-30 17:20:09
Tagged date                      : UTC 2010-11-30 17:53:12


Video
ID                               : 1
Format                           : AVC
Format/Info                      : Advanced Video Codec
Format profile                   : Baseline@L3.0
Format settings, CABAC           : No
Format settings, ReFrames        : 1 frame
Codec ID                         : avc1
Codec ID/Info                    : Advanced Video Coding
Duration                         : 1h 11mn
Bit rate mode                    : Variable
Bit rate                         : 374 Kbps
Width                            : 480 pixels
Height                           : 208 pixels
Display aspect ratio             : 2.35:1
Frame rate mode                  : Constant
Frame rate                       : 25.000 fps
Color space                      : YUV
Chroma subsampling               : 4:2:0
Bit depth                        : 8 bits
Scan type                        : Progressive
Bits/(Pixel*Frame)               : 0.150
Stream size                      : 191 MiB (77%)
Writing library                  : x264 core 79


Audio
ID                               : 2
Format                           : AAC
Format/Info                      : Advanced Audio Codec
Format version                   : Version 4
Format profile                   : LC
Format settings, SBR             : No
Codec ID                         : 40
Duration                         : 1h 11mn
Bit rate mode                    : Variable
Bit rate                         : 110 Kbps
Maximum bit rate                 : 191 Kbps
Channel(s)                       : 2 channels
Channel positions                : Front: L R
Sampling rate                    : 44.1 KHz
Stream size                      : 56.3 MiB (23%)
Encoded date                     : UTC 2010-11-30 17:20:09
Tagged date                      : UTC 2010-11-30 17:53:12

Text
ID                               : 3
Format                           : Apple text
Codec ID                         : text
Duration                         : 1h 11mn
Bit rate                         : 0
Stream size                      : 14.0 Bytes (0%)
Encoded date                     : UTC 2010-11-30 17:20:09
Tagged date                      : UTC 2010-11-30 17:53:12

screenshots 
http://img72.imageshack.us/img72/3665/tomandjerryblastofftoma.jpg
http://img808.imageshack.us/img808/4725/1389596o.jpg
http://img152.imageshack.us/img152/3665/tomandjerryblastofftoma.jpg
http://img823.imageshack.us/img823/3665/tomandjerryblastofftoma.jpg
http://img808.imageshack.us/img808/3665/tomandjerryblastofftoma.jpg
http://img573.imageshack.us/img573/3665/tomandjerryblastofftoma.jpg
http://img825.imageshack.us/img825/9961/tomandjerryblastofftomaf.jpg
